<?xml version="1.0" encoding="UTF-8"?>
<svg version="1.1" xmlns="http://www.w3.org/2000/svg" width="48" height="48">
<path d="M0 0 C1.02480469 -0.04125 2.04960937 -0.0825 3.10546875 -0.125 C9.37277797 -0.18952828 12.99436569 0.49724898 17.58911133 4.87548828 C18.75 6.5 18.75 6.5 19.1875 9.875 C19.043125 10.74125 18.89875 11.6075 18.75 12.5 C19.74 12.5 20.73 12.5 21.75 12.5 C21.80849554 15.70825562 21.84376162 18.91637233 21.875 22.125 C21.89175781 23.02863281 21.90851562 23.93226562 21.92578125 24.86328125 C22.00696724 35.98576188 22.00696724 35.98576188 18.2421875 40.1796875 C16.74479167 41.28645833 15.24739583 42.39322917 13.75 43.5 C14.245 45.975 14.245 45.975 14.75 48.5 C1.22 48.5 -12.31 48.5 -26.25 48.5 C-26.4046875 39.7446875 -26.4046875 39.7446875 -26.5625 30.8125 C-26.60802002 28.97856689 -26.65354004 27.14463379 -26.70043945 25.25512695 C-26.71505111 23.79119696 -26.72779018 22.32724657 -26.73828125 20.86328125 C-26.76386108 20.1115564 -26.78944092 19.35983154 -26.8157959 18.58532715 C-26.81913082 14.55474633 -26.44011013 12.74018812 -23.90698242 9.53979492 C-21.25 7.5 -21.25 7.5 -18.25 6.5 C-18.58 5.51 -18.91 4.52 -19.25 3.5 C-18.486875 3.37625 -17.72375 3.2525 -16.9375 3.125 C-3.65583743 0.03624126 -3.65583743 0.03624126 0 0 Z M11.75 2.5 C12.75 4.5 12.75 4.5 12.75 4.5 Z M-17.25 44.5 C-16.25 46.5 -16.25 46.5 -16.25 46.5 Z M11.75 44.5 C12.75 46.5 12.75 46.5 12.75 46.5 Z " fill="#0C0C0F" transform="translate(26.25,-0.5)"/>
<path d="M0 0 C1.11375 0.680625 1.11375 0.680625 2.25 1.375 C3.013125 1.74625 3.77625 2.1175 4.5625 2.5 C5.119375 2.78875 5.67625 3.0775 6.25 3.375 C6.25 4.035 6.25 4.695 6.25 5.375 C8.725 5.87 8.725 5.87 11.25 6.375 C11.58 8.025 11.91 9.675 12.25 11.375 C11.26 11.705 10.27 12.035 9.25 12.375 C9.25 11.385 9.25 10.395 9.25 9.375 C8.59 9.375 7.93 9.375 7.25 9.375 C7.25 11.025 7.25 12.675 7.25 14.375 C6.60417969 14.55933594 5.95835938 14.74367188 5.29296875 14.93359375 C2.87731602 16.27926924 2.87731602 16.27926924 2.67578125 19.59765625 C2.63839844 20.86480469 2.60101562 22.13195312 2.5625 23.4375 C2.31842105 30.30657895 2.31842105 30.30657895 1.25 31.375 C-1.08297433 31.41592937 -3.41705225 31.41741723 -5.75 31.375 C-5.75 30.715 -5.75 30.055 -5.75 29.375 C-7.07 29.375 -8.39 29.375 -9.75 29.375 C-9.75 28.385 -9.75 27.395 -9.75 26.375 C-10.554375 26.065625 -11.35875 25.75625 -12.1875 25.4375 C-14.75 24.375 -14.75 24.375 -15.75 23.375 C-15.82250298 21.73063243 -15.83375172 20.08332798 -15.8125 18.4375 C-15.80347656 17.54160156 -15.79445313 16.64570313 -15.78515625 15.72265625 C-15.77355469 14.94792969 -15.76195312 14.17320313 -15.75 13.375 C-15.75 12.715 -15.75 12.055 -15.75 11.375 C-15.43197057 9.70534549 -15.10015049 8.03821482 -14.75 6.375 C-13.43 6.045 -12.11 5.715 -10.75 5.375 C-10.75 4.715 -10.75 4.055 -10.75 3.375 C-3.72124949 -0.84573852 -3.72124949 -0.84573852 0 0 Z " fill="#2E210E" transform="translate(25.75,8.625)"/>
<path d="M0 0 C0.66 0 1.32 0 2 0 C2.12375 0.78375 2.2475 1.5675 2.375 2.375 C2.79117993 5.14057822 2.79117993 5.14057822 5 7 C4.01 7 3.02 7 2 7 C3.11854586 10.72614153 3.11854586 10.72614153 6 13 C6 11.35 6 9.7 6 8 C6.66 8 7.32 8 8 8 C8 10.31 8 12.62 8 15 C9.65 14.67 11.3 14.34 13 14 C13.33 12.02 13.66 10.04 14 8 C14.33 8 14.66 8 15 8 C15.02685938 10.14576637 15.04633088 12.29162645 15.0625 14.4375 C15.07410156 15.63246094 15.08570312 16.82742187 15.09765625 18.05859375 C15 21 15 21 14 22 C11.66702567 22.04092937 9.33294775 22.04241723 7 22 C7 21.34 7 20.68 7 20 C5.68 20 4.36 20 3 20 C3 19.01 3 18.02 3 17 C2.195625 16.690625 1.39125 16.38125 0.5625 16.0625 C-2 15 -2 15 -3 14 C-3.07205511 12.31391034 -3.08386068 10.62499341 -3.0625 8.9375 C-3.05347656 8.01839844 -3.04445313 7.09929688 -3.03515625 6.15234375 C-3.02355469 5.44207031 -3.01195312 4.73179688 -3 4 C-2.34 3.67 -1.68 3.34 -1 3 C-0.67 2.01 -0.34 1.02 0 0 Z " fill="#150B03" transform="translate(13,18)"/>
<path d="M0 0 C1.95247818 0.2647428 3.90478628 0.53092904 5.85546875 0.80859375 C8.69298842 1.06185143 11.23338807 0.62248768 14 0 C14.33 1.65 14.66 3.3 15 5 C14.38125 5.350625 13.7625 5.70125 13.125 6.0625 C10.26369574 8.67133624 10.01913587 11.33111087 9 15 C8.01 15.33 7.02 15.66 6 16 C5.34 15.67 4.68 15.34 4 15 C4 12.69 4 10.38 4 8 C3.34 8 2.68 8 2 8 C2 9.65 2 11.3 2 13 C0.68 12.34 -0.64 11.68 -2 11 C-1.85957123 9.35369672 -1.71250671 7.70795821 -1.5625 6.0625 C-1.48128906 5.14597656 -1.40007813 4.22945312 -1.31640625 3.28515625 C-1 1 -1 1 0 0 Z " fill="#E6B41C" transform="translate(17,18)"/>
<path d="M0 0 C4 3 4 3 5 6 C7.74852621 9.04566418 10.17377257 11.4411666 14 13 C13 14 13 14 10.05859375 14.09765625 C6.70572917 14.06510417 3.35286458 14.03255208 0 14 C0 9.38 0 4.76 0 0 Z " fill="#000002" transform="translate(0,34)"/>
<path d="M0 0 C0.42568855 3.10144516 0.6035172 5.91535655 0 9 C-2.0017342 11.30120625 -4.22652608 12.75130925 -7 14 C-7.66 14 -8.32 14 -9 14 C-8.814375 13.278125 -8.62875 12.55625 -8.4375 11.8125 C-7.98004693 8.87173027 -8.26483643 6.85896942 -9 4 C-3.375 0 -3.375 0 0 0 Z " fill="#CDA429" transform="translate(38,23)"/>
<path d="M0 0 C0.33 0 0.66 0 1 0 C1 2.31 1 4.62 1 7 C2.65 6.67 4.3 6.34 6 6 C6.33 4.02 6.66 2.04 7 0 C7.33 0 7.66 0 8 0 C8.02685938 2.14576637 8.04633088 4.29162645 8.0625 6.4375 C8.07410156 7.63246094 8.08570313 8.82742187 8.09765625 10.05859375 C8 13 8 13 7 14 C4.69 14 2.38 14 0 14 C0 9.38 0 4.76 0 0 Z " fill="#352106" transform="translate(20,26)"/>
<path d="M0 0 C0.99 0.33 1.98 0.66 3 1 C3 3.31 3 5.62 3 8 C4.98 8.66 6.96 9.32 9 10 C9 11.32 9 12.64 9 14 C2.22352941 11.55294118 2.22352941 11.55294118 0 9 C-0.33937187 5.97258745 -0.22891073 3.03306712 0 0 Z " fill="#DFB127" transform="translate(10,23)"/>
<path d="M0 0 C0.763125 0.45375 1.52625 0.9075 2.3125 1.375 C3.075625 1.74625 3.83875 2.1175 4.625 2.5 C5.181875 2.78875 5.73875 3.0775 6.3125 3.375 C6.3125 4.035 6.3125 4.695 6.3125 5.375 C5.74402344 5.29121094 5.17554688 5.20742187 4.58984375 5.12109375 C-0.45385545 4.45589803 -4.69044069 4.4181163 -9.6875 5.375 C-9.6875 4.715 -9.6875 4.055 -9.6875 3.375 C-3.42887931 -0.79741379 -3.42887931 -0.79741379 0 0 Z " fill="#D9AA20" transform="translate(25.6875,8.625)"/>
<path d="M0 0 C6.0546875 -0.1953125 6.0546875 -0.1953125 8 0 C10 2 10 2 10 6 C9.01 6.33 8.02 6.66 7 7 C7 6.01 7 5.02 7 4 C6.34 4 5.68 4 5 4 C5 5.65 5 7.3 5 9 C4.731875 8.38125 4.46375 7.7625 4.1875 7.125 C3.04443152 4.7004767 3.04443152 4.7004767 0 3 C0 2.01 0 1.02 0 0 Z " fill="#3A2E18" transform="translate(28,14)"/>
<path d="M0 0 C0.66 0 1.32 0 2 0 C2 0.99 2 1.98 2 3 C2.99 3 3.98 3 5 3 C5 3.66 5 4.32 5 5 C4.01 5.33 3.02 5.66 2 6 C1.67 7.98 1.34 9.96 1 12 C0.67 12 0.34 12 0 12 C0 10.35 0 8.7 0 7 C-1.98 7.99 -1.98 7.99 -4 9 C-4 8.01 -4 7.02 -4 6 C-2.68 5.67 -1.36 5.34 0 5 C0 3.35 0 1.7 0 0 Z " fill="#261A04" transform="translate(33,18)"/>
<path d="M0 0 C0 2.31 0 4.62 0 7 C-3.75 8.125 -3.75 8.125 -6 7 C-5.75 4.625 -5.75 4.625 -5 2 C-1.95238095 0 -1.95238095 0 0 0 Z " fill="#83671E" transform="translate(35,24)"/>
<path d="M0 0 C1.98 0 3.96 0 6 0 C6 1.32 6 2.64 6 4 C3.75 4.6875 3.75 4.6875 1 5 C-1.3125 3.5625 -1.3125 3.5625 -3 2 C-2.01 2 -1.02 2 0 2 C0 1.34 0 0.68 0 0 Z " fill="#675221" transform="translate(21,15)"/>
<path d="M0 0 C2.0625 0.4375 2.0625 0.4375 4 1 C4 1.66 4 2.32 4 3 C3.01 3.495 3.01 3.495 2 4 C1.67 4.99 1.34 5.98 1 7 C0.01 6.67 -0.98 6.34 -2 6 C-1.125 1.125 -1.125 1.125 0 0 Z " fill="#C8A328" transform="translate(12,14)"/>
<path d="M0 0 C1.98 0 3.96 0 6 0 C6 1.32 6 2.64 6 4 C2.25 5.125 2.25 5.125 0 4 C0 2.68 0 1.36 0 0 Z " fill="#D5AD31" transform="translate(21,35)"/>
<path d="M0 0 C2.31 0.33 4.62 0.66 7 1 C7 2.32 7 3.64 7 5 C2.25 3.125 2.25 3.125 0 2 C0 1.34 0 0.68 0 0 Z " fill="#C9A225" transform="translate(12,32)"/>
<path d="M0 0 C1.65 0 3.3 0 5 0 C4.67 1.98 4.34 3.96 4 6 C2.68 5.34 1.36 4.68 0 4 C0 2.68 0 1.36 0 0 Z " fill="#846B26" transform="translate(15,25)"/>
<path d="M0 0 C1.65 0 3.3 0 5 0 C5.33 1.65 5.66 3.3 6 5 C5.01 5.33 4.02 5.66 3 6 C2.67 5.01 2.34 4.02 2 3 C1.34 2.67 0.68 2.34 0 2 C0 1.34 0 0.68 0 0 Z " fill="#CEA92A" transform="translate(32,15)"/>
<path d="M0 0 C0.66 0.33 1.32 0.66 2 1 C2 1.99 2 2.98 2 4 C-0.64 4 -3.28 4 -6 4 C-3.94766315 1.7522025 -2.99332739 0.9977758 0 0 Z " fill="#000104" transform="translate(39,44)"/>
<path d="M0 0 C0.33 0 0.66 0 1 0 C1 4.29 1 8.58 1 13 C0.67 13 0.34 13 0 13 C-0.12375 11.88625 -0.2475 10.7725 -0.375 9.625 C-0.6465813 5.96896323 -0.6465813 5.96896323 -3 4 C-2.34 3.67 -1.68 3.34 -1 3 C-0.67 2.01 -0.34 1.02 0 0 Z " fill="#553A05" transform="translate(13,18)"/>
<path d="M0 0 C2 1 2 1 2 1 Z " fill="#000000" transform="translate(3,6)"/>
<path d="" fill="#000002" transform="translate(0,0)"/>
</svg>
