<?xml version="1.0" encoding="UTF-8"?>
<svg version="1.1" xmlns="http://www.w3.org/2000/svg" width="48" height="48">
<path d="M0 0 C1.258125 -0.020625 2.51625 -0.04125 3.8125 -0.0625 C4.52019531 -0.07410156 5.22789063 -0.08570313 5.95703125 -0.09765625 C8 0 8 0 11 1 C11.66 0.67 12.32 0.34 13 0 C15.47005337 -0.09833936 17.90557661 -0.13903081 20.375 -0.125 C21.04789063 -0.12886719 21.72078125 -0.13273437 22.4140625 -0.13671875 C25.78594477 -0.13008119 28.75441258 0.126188 32 1 C34.00946222 0.72949547 36.01354224 0.40632091 38 0 C37.34 0.99 36.68 1.98 36 3 C37.32 2.67 38.64 2.34 40 2 C41 6.75 41 6.75 41 9 C41.495 10.485 41.495 10.485 42 12 C42.66 12 43.32 12 44 12 C45.19094628 15.76339024 45.16776608 19.38544958 45.1875 23.3125 C45.20167969 24.58738281 45.21585938 25.86226562 45.23046875 27.17578125 C44.90617498 32.55685918 43.76050744 38.55059835 40.5625 43 C31.46185683 50.10294101 18.88924135 48.30908327 8 48 C7.72414063 47.38382813 7.44828125 46.76765625 7.1640625 46.1328125 C5.64127652 43.34274154 3.47204296 41.95161286 1 40 C1 39.34 1 38.68 1 38 C0.01 37.67 -0.98 37.34 -2 37 C-3.03200434 31.79768306 -3.28507923 26.7223888 -3.375 21.4375 C-3.41238281 20.60025391 -3.44976562 19.76300781 -3.48828125 18.90039062 C-3.55217177 14.41740559 -3.50387572 12.6222906 -0.58984375 9.0234375 C0.26480469 8.35570312 1.11945312 7.68796875 2 7 C2.598125 6.401875 3.19625 5.80375 3.8125 5.1875 C4.204375 4.795625 4.59625 4.40375 5 4 C3.35 4 1.7 4 0 4 C0 2.68 0 1.36 0 0 Z " fill="#F29D35" transform="translate(3,0)"/>
<path d="M0 0 C0.66 0 1.32 0 2 0 C2 1.65 2 3.3 2 5 C2.66 5 3.32 5 4 5 C4 3.68 4 2.36 4 1 C4.99 1.33 5.98 1.66 7 2 C7.35412344 3.32796291 7.68521554 4.66216607 8 6 C8.7734375 6.7115625 8.7734375 6.7115625 9.5625 7.4375 C11 9 11 9 11.25 11.5 C11 14 11 14 10 17 C10.020625 18.175625 10.04125 19.35125 10.0625 20.5625 C10 24 10 24 8 26 C5.67724823 26.40047444 3.34260643 26.7397104 1 27 C0.67 27.99 0.34 28.98 0 30 C-0.66 30 -1.32 30 -2 30 C-2 28.35 -2 26.7 -2 25 C-2.66 25 -3.32 25 -4 25 C-4 26.32 -4 27.64 -4 29 C-4.99 29 -5.98 29 -7 29 C-7 27.35 -7 25.7 -7 24 C-8.32 23.67 -9.64 23.34 -11 23 C-11 22.01 -11 21.02 -11 20 C-9.68 20 -8.36 20 -7 20 C-6.90912109 19.09507813 -6.90912109 19.09507813 -6.81640625 18.171875 C-6.73261719 17.37265625 -6.64882813 16.5734375 -6.5625 15.75 C-6.48128906 14.96109375 -6.40007813 14.1721875 -6.31640625 13.359375 C-6.02365007 11.17635361 -5.57935581 9.1226818 -5 7 C-5.66 6.67 -6.32 6.34 -7 6 C-7 5.01 -7 4.02 -7 3 C-4.03 3.495 -4.03 3.495 -1 4 C-0.67 2.68 -0.34 1.36 0 0 Z " fill="#FDF2E1" transform="translate(24,9)"/>
<path d="M0 0 C0.99 0.33 1.98 0.66 3 1 C3.35412344 2.32796291 3.68521554 3.66216607 4 5 C4.7734375 5.7115625 4.7734375 5.7115625 5.5625 6.4375 C7 8 7 8 7.25 10.5 C7 13 7 13 6 16 C6.020625 17.175625 6.04125 18.35125 6.0625 19.5625 C6 23 6 23 4 25 C1.67724823 25.40047444 -0.65739357 25.7397104 -3 26 C-3.33 26.99 -3.66 27.98 -4 29 C-4.66 29 -5.32 29 -6 29 C-6 26.69 -6 24.38 -6 22 C-3.69 21.34 -1.38 20.68 1 20 C0.67 19.01 0.34 18.02 0 17 C-0.66 16.67 -1.32 16.34 -2 16 C-2 15.34 -2 14.68 -2 14 C-0.68 14 0.64 14 2 14 C2 12.02 2 10.04 2 8 C0.02 8 -1.96 8 -4 8 C-4 7.34 -4 6.68 -4 6 C-3.34 6 -2.68 6 -2 6 C-2 5.34 -2 4.68 -2 4 C-1.34 4 -0.68 4 0 4 C0 2.68 0 1.36 0 0 Z " fill="#FDF6ED" transform="translate(28,10)"/>
<path d="M0 0 C5.52677733 -0.19392201 9.75614911 0.2520497 15 2 C13.375 4 13.375 4 11 6 C7.75 6.25 7.75 6.25 5 6 C5 5.34 5 4.68 5 4 C3.35 4 1.7 4 0 4 C0 2.68 0 1.36 0 0 Z " fill="#EFA951" transform="translate(3,0)"/>
<path d="M0 0 C1.65 0.33 3.3 0.66 5 1 C3.79157144 5.43090471 2.48331435 7.98112756 -1 11 C-1.66 10.67 -2.32 10.34 -3 10 C-2.34 9.01 -1.68 8.02 -1 7 C-1.3121764 4.35367713 -1.3121764 4.35367713 -2 2 C-1.34 2 -0.68 2 0 2 C0 1.34 0 0.68 0 0 Z " fill="#EE9623" transform="translate(42,34)"/>
<path d="M0 0 C1.2065625 0.0309375 1.2065625 0.0309375 2.4375 0.0625 C1.0625 2.0625 1.0625 2.0625 -0.5625 4.0625 C-1.2225 4.0625 -1.8825 4.0625 -2.5625 4.0625 C-2.85125 4.64 -3.14 5.2175 -3.4375 5.8125 C-4.47916667 7.89583333 -5.52083333 9.97916667 -6.5625 12.0625 C-7.2225 11.7325 -7.8825 11.4025 -8.5625 11.0625 C-8.875 8.875 -8.875 8.875 -8.5625 6.0625 C-6.125 3.3125 -6.125 3.3125 -3.5625 1.0625 C-2.5625 0.0625 -2.5625 0.0625 0 0 Z " fill="#D39047" transform="translate(8.5625,5.9375)"/>
<path d="M0 0 C2.4375 0.1875 2.4375 0.1875 5 1 C6.3125 3.0625 6.3125 3.0625 7 5 C6 6 6 6 2.4375 6.0625 C1.303125 6.041875 0.16875 6.02125 -1 6 C-1.042721 4.33388095 -1.04063832 2.66617115 -1 1 C-0.67 0.67 -0.34 0.34 0 0 Z " fill="#ECA346" transform="translate(23,25)"/>
<path d="M0 0 C2.64 0 5.28 0 8 0 C8.33 0.66 8.66 1.32 9 2 C5.86501708 3.85776765 3.62528568 4.20140476 0 4 C0 2.68 0 1.36 0 0 Z " fill="#150E0B" transform="translate(3,0)"/>
<path d="M0 0 C1.65 0.33 3.3 0.66 5 1 C5 2.32 5 3.64 5 5 C3.02 5 1.04 5 -1 5 C-0.67 3.35 -0.34 1.7 0 0 Z " fill="#F2A542" transform="translate(25,17)"/>
<path d="M0 0 C0.33 0 0.66 0 1 0 C1 4.62 1 9.24 1 14 C0.34 14 -0.32 14 -1 14 C-1.93402724 8.58264203 -2.20808081 5.19548425 0 0 Z " fill="#ECB368" transform="translate(35,18)"/>
<path d="M0 0 C0.66 0 1.32 0 2 0 C1.5206753 4.31392226 0.2542015 6.16569547 -3 9 C-3.66 8.67 -4.32 8.34 -5 8 C-4.01 6.02 -3.02 4.04 -2 2 C-1.34 2 -0.68 2 0 2 C0 1.34 0 0.68 0 0 Z " fill="#8B562F" transform="translate(44,36)"/>
<path d="M0 0 C3.3 0 6.6 0 10 0 C10 0.33 10 0.66 10 1 C7.69 1.33 5.38 1.66 3 2 C2.67 2.99 2.34 3.98 2 5 C1.34 5 0.68 5 0 5 C0 3.35 0 1.7 0 0 Z " fill="#FDF0D1" transform="translate(22,34)"/>
<path d="M0 0 C0.66 0 1.32 0 2 0 C2 0.99 2 1.98 2 3 C3.98 3 5.96 3 8 3 C8 3.33 8 3.66 8 4 C6.02 4 4.04 4 2 4 C2 4.66 2 5.32 2 6 C1.34 6 0.68 6 0 6 C0 4.02 0 2.04 0 0 Z " fill="#FBECCD" transform="translate(20,28)"/>
<path d="M0 0 C-1.62339805 1.70884005 -3.29319053 3.37446717 -5 5 C-5.66 5 -6.32 5 -7 5 C-6.67 3.35 -6.34 1.7 -6 0 C-3 -1 -3 -1 0 0 Z " fill="#B1843B" transform="translate(41,1)"/>
<path d="M0 0 C1.98 0 3.96 0 6 0 C6 0.66 6 1.32 6 2 C3.36 2.66 0.72 3.32 -2 4 C-2 3.34 -2 2.68 -2 2 C-1.34 2 -0.68 2 0 2 C0 1.34 0 0.68 0 0 Z " fill="#F6E6C8" transform="translate(24,22)"/>
<path d="" fill="#715841" transform="translate(0,0)"/>
<path d="M0 0 C2 1 2 1 2 1 Z " fill="#100001" transform="translate(3,6)"/>
<path d="" fill="#1F0100" transform="translate(0,0)"/>
<path d="" fill="#D9A262" transform="translate(0,0)"/>
<path d="" fill="#DBD42B" transform="translate(0,0)"/>
</svg>
