<?xml version="1.0" encoding="UTF-8"?>
<svg version="1.1" xmlns="http://www.w3.org/2000/svg" width="48" height="48">
<path d="M0 0 C8.58 0 17.16 0 26 0 C26.495 1.485 26.495 1.485 27 3 C27.99 3 28.98 3 30 3 C34.3989036 5.78954863 35.7276599 8.01829361 37 13 C37.16237778 15.78486623 37.23437565 18.46222484 37.1953125 21.2421875 C37.1924826 22.01055939 37.18965271 22.77893127 37.18673706 23.57058716 C37.17561311 26.00555521 37.1505236 28.44014462 37.125 30.875 C37.11496011 32.53384882 37.10583603 34.19270346 37.09765625 35.8515625 C37.07569937 39.90118579 37.04122406 43.95052887 37 48 C32.69500266 48.04967599 28.39016007 48.08584945 24.08496094 48.10986328 C22.62236624 48.11988105 21.15979137 48.13349912 19.69726562 48.15087891 C17.58718961 48.17531439 15.47737988 48.18652537 13.3671875 48.1953125 C11.46622314 48.21102295 11.46622314 48.21102295 9.52685547 48.22705078 C6.01012267 48.00065167 3.27083513 47.27223601 0 46 C0 46.66 0 47.32 0 48 C-3.63 48 -7.26 48 -11 48 C-11 35.79 -11 23.58 -11 11 C-9.68 10.34 -8.36 9.68 -7 9 C-5.34894897 7.51561772 -5.34894897 7.51561772 -3.875 5.875 C-2.3671875 4.2421875 -2.3671875 4.2421875 -1 3 C-0.34 3 0.32 3 1 3 C0.67 2.01 0.34 1.02 0 0 Z M-10 34 C-9.67 35.65 -9.34 37.3 -9 39 C-8.67 38.01 -8.34 37.02 -8 36 C-8.66 35.34 -9.32 34.68 -10 34 Z M33 38 C31.61767557 39.62626404 30.28062485 41.2925002 29 43 C32.16115776 41.63016497 32.9927092 41.0109362 35 38 C34.34 38 33.68 38 33 38 Z M-5 41 C-5 41.66 -5 42.32 -5 43 C-4.34 42.67 -3.68 42.34 -3 42 C-3.66 41.67 -4.32 41.34 -5 41 Z M-2 44 C-1 46 -1 46 -1 46 Z M27 44 C28 46 28 46 28 46 Z " fill="#2D2F45" transform="translate(11,0)"/>
<path d="M0 0 C0.99 0.33 1.98 0.66 3 1 C3.73046875 3.06640625 3.73046875 3.06640625 4.1875 5.5625 C4.34605469 6.38878906 4.50460938 7.21507812 4.66796875 8.06640625 C4.77753906 8.70449219 4.88710938 9.34257812 5 10 C5.99 9.34 6.98 8.68 8 8 C10.04296875 7.8046875 10.04296875 7.8046875 12.1875 7.875 C14.0746875 7.936875 14.0746875 7.936875 16 8 C15.625 9.9375 15.625 9.9375 15 12 C14.01 12.495 14.01 12.495 13 13 C13.33 12.01 13.66 11.02 14 10 C13.4225 10.144375 12.845 10.28875 12.25 10.4375 C9.125 11.21875 9.125 11.21875 6 12 C6 12.99 6 13.98 6 15 C6.99 15.33 7.98 15.66 9 16 C9 16.66 9 17.32 9 18 C9.598125 18.268125 10.19625 18.53625 10.8125 18.8125 C13.01819033 20.00987475 14.43583187 21.04478984 16 23 C16 23.99 16 24.98 16 26 C10.06997733 26.37851209 5.52760359 25.10575375 0 23 C0 24.98 0 26.96 0 29 C0.99 29 1.98 29 3 29 C3.33 28.01 3.66 27.02 4 26 C3.125 32.75 3.125 32.75 2 35 C1.34 35 0.68 35 0 35 C-1.72264494 31.70450534 -3.29445932 28.66881155 -4 25 C-4.99 25.33 -5.98 25.66 -7 26 C-9.33299825 26.03954234 -11.66708189 26.04401732 -14 26 C-13.65652573 22.79424013 -13.0292146 22.02483241 -10.5 19.875 C-9.675 19.25625 -8.85 18.6375 -8 18 C-7.67 17.34 -7.34 16.68 -7 16 C-7.598125 15.9175 -8.19625 15.835 -8.8125 15.75 C-11.65025411 14.77705573 -12.49676067 13.55550687 -14 11 C-14 10.01 -14 9.02 -14 8 C-9.65736138 7.83297544 -6.79039366 7.87000003 -3 10 C-2.86722656 9.36191406 -2.73445313 8.72382813 -2.59765625 8.06640625 C-2.42105469 7.24011719 -2.24445312 6.41382813 -2.0625 5.5625 C-1.88847656 4.73878906 -1.71445312 3.91507813 -1.53515625 3.06640625 C-1 1 -1 1 0 0 Z " fill="#4B4E67" transform="translate(23,7)"/>
<path d="M0 0 C0.99 0.33 1.98 0.66 3 1 C3.73046875 3.06640625 3.73046875 3.06640625 4.1875 5.5625 C4.34605469 6.38878906 4.50460938 7.21507812 4.66796875 8.06640625 C4.77753906 8.70449219 4.88710938 9.34257812 5 10 C5.99 9.34 6.98 8.68 8 8 C10.04296875 7.8046875 10.04296875 7.8046875 12.1875 7.875 C14.0746875 7.936875 14.0746875 7.936875 16 8 C15.625 9.9375 15.625 9.9375 15 12 C14.01 12.495 14.01 12.495 13 13 C13.33 12.01 13.66 11.02 14 10 C13.4225 10.144375 12.845 10.28875 12.25 10.4375 C10.77901149 10.80524713 9.2993155 11.1401369 7.8125 11.4375 C6.9153125 11.7159375 6.9153125 11.7159375 6 12 C5.67 12.66 5.34 13.32 5 14 C3.02 14 1.04 14 -1 14 C-1.33 14.66 -1.66 15.32 -2 16 C-5.01657791 15.85969405 -7.23841273 15.70648535 -9.51171875 13.59765625 C-10.73256066 12.11095765 -11.87246522 10.55865102 -13 9 C-9.7 9.33 -6.4 9.66 -3 10 C-2.690625 8.535625 -2.38125 7.07125 -2.0625 5.5625 C-1.125 1.125 -1.125 1.125 0 0 Z " fill="#575B72" transform="translate(23,7)"/>
<path d="M0 0 C1.98 0.66 3.96 1.32 6 2 C6 2.66 6 3.32 6 4 C6.598125 4.268125 7.19625 4.53625 7.8125 4.8125 C10.01819033 6.00987475 11.43583187 7.04478984 13 9 C13 9.99 13 10.98 13 12 C6.4485856 12.41817539 0.87376326 10.93688163 -5 8 C-4.34 5.69 -3.68 3.38 -3 1 C-2.01 1.33 -1.02 1.66 0 2 C0 1.34 0 0.68 0 0 Z " fill="#535770" transform="translate(26,21)"/>
<path d="M0 0 C0.66 0 1.32 0 2 0 C2 4.62 2 9.24 2 14 C-2.29 14 -6.58 14 -11 14 C-11.33 13.34 -11.66 12.68 -12 12 C-11.29875 11.773125 -10.5975 11.54625 -9.875 11.3125 C-6.29867282 9.6798289 -3.81007491 7.74620957 -1 5 C-0.04452419 2.32891902 -0.04452419 2.32891902 0 0 Z " fill="#020306" transform="translate(46,34)"/>
<path d="M0 0 C0.99 1.485 0.99 1.485 2 3 C4.11954815 5.77733895 6.27612271 8.27612271 8.75 10.75 C9.4925 11.4925 10.235 12.235 11 13 C11 13.33 11 13.66 11 14 C7.37 14 3.74 14 0 14 C0 9.38 0 4.76 0 0 Z " fill="#030405" transform="translate(0,34)"/>
<path d="M0 0 C3.83953399 1.27984466 5.65316744 3.81501296 8 7 C4.53058454 6.54177532 1.32604951 6.10868317 -2 5 C-2 3.68 -2 2.36 -2 1 C-1.34 0.67 -0.68 0.34 0 0 Z " fill="#21253E" transform="translate(30,25)"/>
<path d="M0 0 C0.99 0.33 1.98 0.66 3 1 C3 2.32 3 3.64 3 5 C-0.83887763 6.48320272 -3.06204091 7.22419163 -7 6 C-5.90716423 4.96704564 -4.80029421 3.94892165 -3.6875 2.9375 C-3.07261719 2.36902344 -2.45773438 1.80054687 -1.82421875 1.21484375 C-0.92123047 0.61349609 -0.92123047 0.61349609 0 0 Z " fill="#20233B" transform="translate(17,25)"/>
<path d="M0 0 C6.75 -0.125 6.75 -0.125 9 1 C8.67 1.66 8.34 2.32 8 3 C5.03 2.505 5.03 2.505 2 2 C2.66 2.45375 3.32 2.9075 4 3.375 C4.66 3.91125 5.32 4.4475 6 5 C6 5.66 6 6.32 6 7 C7.32 7.33 8.64 7.66 10 8 C10 8.66 10 9.32 10 10 C8.68 10.33 7.36 10.66 6 11 C6.33 10.01 6.66 9.02 7 8 C6.401875 7.9175 5.80375 7.835 5.1875 7.75 C2.34974589 6.77705573 1.50323933 5.55550687 0 3 C0 2.01 0 1.02 0 0 Z " fill="#5C5E75" transform="translate(9,15)"/>
<path d="M0 0 C3.46941546 0.45822468 6.67395049 0.89131683 10 2 C9.67 3.65 9.34 5.3 9 7 C6.62051228 6.82374165 5.29774151 6.30280227 3.62109375 4.59765625 C2.37884514 3.09350908 1.18623944 1.54870149 0 0 Z " fill="#20233A" transform="translate(10,16)"/>
<path d="M0 0 C2.76223278 2.76223278 2.57856291 5.20706617 3 9 C1.35 9.33 -0.3 9.66 -2 10 C-2.25 3.375 -2.25 3.375 0 0 Z " fill="#1F243A" transform="translate(24,9)"/>
<path d="M0 0 C0.99 0.33 1.98 0.66 3 1 C2.67 1.99 2.34 2.98 2 4 C2.66 4.33 3.32 4.66 4 5 C3.67 5.99 3.34 6.98 3 8 C1.35 7.67 -0.3 7.34 -2 7 C-1.34 4.69 -0.68 2.38 0 0 Z " fill="#6F738C" transform="translate(23,22)"/>
<path d="M0 0 C0.99 0.33 1.98 0.66 3 1 C3.33 2.98 3.66 4.96 4 7 C3.01 5.68 2.02 4.36 1 3 C0.34 5.64 -0.32 8.28 -1 11 C-1.66 10.67 -2.32 10.34 -3 10 C-2.69201674 8.51988629 -2.378482 7.04092675 -2.0625 5.5625 C-1.88847656 4.73878906 -1.71445312 3.91507813 -1.53515625 3.06640625 C-1 1 -1 1 0 0 Z " fill="#4B5367" transform="translate(23,7)"/>
<path d="M0 0 C1.2065625 0.0309375 1.2065625 0.0309375 2.4375 0.0625 C2.1075 1.3825 1.7775 2.7025 1.4375 4.0625 C0.1175 4.3925 -1.2025 4.7225 -2.5625 5.0625 C-3.125 3.125 -3.125 3.125 -3.5625 1.0625 C-2.5625 0.0625 -2.5625 0.0625 0 0 Z " fill="#1A1E36" transform="translate(31.5625,17.9375)"/>
<path d="M0 0 C0.99 0.33 1.98 0.66 3 1 C3 2.98 3 4.96 3 7 C2.01 7 1.02 7 0 7 C-0.38133299 5.0085944 -0.71325582 3.00720923 -1 1 C-0.67 0.67 -0.34 0.34 0 0 Z " fill="#1A1D36" transform="translate(23,29)"/>
<path d="M0 0 C0.33 0 0.66 0 1 0 C0.125 6.75 0.125 6.75 -1 9 C-1.66 9 -2.32 9 -3 9 C-3 7.02 -3 5.04 -3 3 C-2.01 3 -1.02 3 0 3 C0 2.01 0 1.02 0 0 Z " fill="#44465F" transform="translate(26,33)"/>
<path d="M0 0 C1.32 0.33 2.64 0.66 4 1 C2.02 3.97 2.02 3.97 0 7 C-0.66 6.67 -1.32 6.34 -2 6 C-1.34 4.02 -0.68 2.04 0 0 Z " fill="#3B3D54" transform="translate(34,16)"/>
<path d="M0 0 C1.65 0 3.3 0 5 0 C5 0.99 5 1.98 5 3 C3.35 3 1.7 3 0 3 C0 2.01 0 1.02 0 0 Z " fill="#000000" transform="translate(0,0)"/>
<path d="M0 0 C2 1 2 1 2 1 Z " fill="#28292E" transform="translate(7,3)"/>
<path d="" fill="#000102" transform="translate(0,0)"/>
</svg>
