<?xml version="1.0" encoding="UTF-8"?>
<svg version="1.1" xmlns="http://www.w3.org/2000/svg" width="48" height="48">
<path d="M0 0 C0.69931641 -0.00773438 1.39863281 -0.01546875 2.11914062 -0.0234375 C6.51929782 -0.00697293 10.10087032 0.63331133 14.1875 2.25 C14.5175 1.92 14.8475 1.59 15.1875 1.25 C17.72150593 2.24133705 18.96048367 2.87238133 20.3828125 5.23828125 C20.68960938 6.00527344 20.99640625 6.77226563 21.3125 7.5625 C21.62445313 8.32175781 21.93640625 9.08101562 22.2578125 9.86328125 C22.56460938 10.65089844 22.87140625 11.43851563 23.1875 12.25 C23.72890625 13.42369141 23.72890625 13.42369141 24.28125 14.62109375 C26.61348532 21.38658674 26.24324162 29.77378825 23.375 36.3125 C22.15463863 38.65333551 20.8111683 40.86825923 19.4375 43.125 C17.93398994 45.27006955 17.93398994 45.27006955 18.1875 48.25 C13.91929948 48.42439217 9.65303888 48.55067865 5.38232422 48.63452148 C3.93306316 48.66950365 2.48404519 48.71710991 1.03564453 48.77807617 C-12.53277646 49.33446559 -12.53277646 49.33446559 -17.75390625 44.95703125 C-20.97865228 41.64999646 -21.72287935 38.91027372 -21.8125 34.25 C-22.3075 32.765 -22.3075 32.765 -22.8125 31.25 C-22.90384073 29.86558472 -22.94315596 28.47726731 -22.9453125 27.08984375 C-22.94660156 26.29642578 -22.94789062 25.50300781 -22.94921875 24.68554688 C-22.94535156 23.86119141 -22.94148438 23.03683594 -22.9375 22.1875 C-22.94136719 21.35927734 -22.94523437 20.53105469 -22.94921875 19.67773438 C-22.94792969 18.88560547 -22.94664063 18.09347656 -22.9453125 17.27734375 C-22.94418457 16.55281006 -22.94305664 15.82827637 -22.94189453 15.08178711 C-22.8125 13.25 -22.8125 13.25 -21.8125 11.25 C-21.1525 11.25 -20.4925 11.25 -19.8125 11.25 C-19.544375 10.610625 -19.27625 9.97125 -19 9.3125 C-17.8125 7.25 -17.8125 7.25 -14.8125 6.25 C-15.1425 5.26 -15.4725 4.27 -15.8125 3.25 C-15.049375 3.12625 -14.28625 3.0025 -13.5 2.875 C-1.08666421 -0.01182228 -1.08666421 -0.01182228 0 0 Z M-13.8125 44.25 C-12.8125 46.25 -12.8125 46.25 -12.8125 46.25 Z M15.1875 44.25 C16.1875 46.25 16.1875 46.25 16.1875 46.25 Z " fill="#EDEDF1" transform="translate(22.8125,-0.25)"/>
<path d="M0 0 C3.08565497 2.71576573 5.07287319 6.08655828 7.1875 9.5625 C7.55552734 10.15224609 7.92355469 10.74199219 8.30273438 11.34960938 C11 15.74830415 11 15.74830415 11 18 C9.61518672 18.87191947 8.21654754 19.72190384 6.8125 20.5625 C6.03519531 21.03816406 5.25789063 21.51382812 4.45703125 22.00390625 C1.44082641 23.226692 0.06785989 22.98328843 -3 22 C-5.44967679 20.82017501 -7.67088852 19.41573443 -10 18 C-8.47146065 13.72813475 -6.28490519 10.00673137 -3.875 6.1875 C-3.50246094 5.59001953 -3.12992188 4.99253906 -2.74609375 4.37695312 C-1.8342952 2.91573749 -0.91764024 1.45755415 0 0 Z " fill="#3A3A3B" transform="translate(24,7)"/>
<path d="M0 0 C0 0.66 0 1.32 0 2 C-1.38481328 2.87191947 -2.78345246 3.72190384 -4.1875 4.5625 C-4.96480469 5.03816406 -5.74210937 5.51382812 -6.54296875 6.00390625 C-9.55111154 7.2234236 -10.94422562 6.99213454 -14 6 C-16.04049422 4.7295036 -18.05017465 3.40568804 -20 2 C-14.93195292 -5.60207062 -7.06347183 -3.39046648 0 0 Z " fill="#19191A" transform="translate(35,23)"/>
<path d="M0 0 C2.9719385 1.12451727 5.33440687 2.22293791 8 4 C12.58170605 3.69455293 16.00124847 2.1897925 20 0 C18.45158425 3.34708051 16.50894136 6.24667512 14.375 9.25 C13.74335938 10.14203125 13.11171875 11.0340625 12.4609375 11.953125 C11.97882812 12.62859375 11.49671875 13.3040625 11 14 C6.45924219 9.85989729 3.28157862 5.17609824 0 0 Z " fill="#3F3F41" transform="translate(14,27)"/>
<path d="M0 0 C0.33 0 0.66 0 1 0 C1 3.96 1 7.92 1 12 C-2.33333333 13.66666667 -5.66666667 15.33333333 -9 17 C-7.51463956 12.97683781 -5.60123107 9.38707358 -3.4375 5.6875 C-2.81746094 4.61886719 -2.19742187 3.55023438 -1.55859375 2.44921875 C-1.04425781 1.64097656 -0.52992187 0.83273437 0 0 Z " fill="#848487" transform="translate(23,8)"/>
<path d="M0 0 C0 3.3 0 6.6 0 10 C-3.93673644 8.68775452 -6.22719294 7.08089673 -9 4 C-2.39130435 0 -2.39130435 0 0 0 Z " fill="#3A3A3C" transform="translate(24,20)"/>
<path d="M0 0 C3.7910119 1.44950455 7.3874638 3.15172566 11 5 C10.67 7.64 10.34 10.28 10 13 C5.75595588 9.11973109 2.89082453 4.95745654 0 0 Z " fill="#8D8C92" transform="translate(14,27)"/>
<path d="M0 0 C-1.15527311 3.46581934 -1.63086226 3.67870505 -4.75 5.25 C-7.37794906 6.47262871 -8.75672475 7.00565756 -11.6875 6.9375 C-14.31882465 5.87074676 -16.62898003 4.55809884 -19 3 C-18.67 2.34 -18.34 1.68 -18 1 C-16.948125 1.7734375 -16.948125 1.7734375 -15.875 2.5625 C-12.29344145 4.35327927 -10.80139297 4.10873962 -7 3 C-1.72 0 -1.72 0 0 0 Z " fill="#E2E2E4" transform="translate(35,25)"/>
<path d="M0 0 C1.17487036 0.75827092 2.33972592 1.53207755 3.5 2.3125 C4.47453125 2.95638672 4.47453125 2.95638672 5.46875 3.61328125 C5.9740625 4.07089844 6.479375 4.52851562 7 5 C7 5.99 7 6.98 7 8 C3.6223242 6.87410807 2.28636808 5.68056948 0 3 C0 2.01 0 1.02 0 0 Z " fill="#555557" transform="translate(2,38)"/>
<path d="M0 0 C2.475 0.495 2.475 0.495 5 1 C4.67 3.64 4.34 6.28 4 9 C1.47740939 7.02579865 1.0070192 6.03254358 0.3125 2.8125 C0.209375 1.884375 0.10625 0.95625 0 0 Z " fill="#86858A" transform="translate(20,31)"/>
<path d="M0 0 C-0.33 0.99 -0.66 1.98 -1 3 C-4.5625 4.6875 -4.5625 4.6875 -8 6 C-8.33 5.34 -8.66 4.68 -9 4 C-2.25 0 -2.25 0 0 0 Z " fill="#D0D0D2" transform="translate(35,25)"/>
<path d="M0 0 C1.9375 0.6875 1.9375 0.6875 4 2 C4.75 4.625 4.75 4.625 5 7 C1.18461538 4.53846154 1.18461538 4.53846154 0.25 1.8125 C0.1675 1.214375 0.085 0.61625 0 0 Z " fill="#3D3C3E" transform="translate(38,1)"/>
<path d="" fill="#7F7F7F" transform="translate(0,0)"/>
<path d="M0 0 C2 1 2 1 2 1 Z " fill="#000000" transform="translate(3,6)"/>
</svg>
