<?xml version="1.0" encoding="UTF-8"?>
<svg version="1.1" xmlns="http://www.w3.org/2000/svg" width="48" height="48">
<path d="M0 0 C15.84 0 31.68 0 48 0 C48 15.84 48 31.68 48 48 C32.16 48 16.32 48 0 48 C0 32.16 0 16.32 0 0 Z " fill="#E4027A" transform="translate(0,0)"/>
<path d="M0 0 C3.5625 0.25 3.5625 0.25 6.5625 2.25 C6.5625 3.24 6.5625 4.23 6.5625 5.25 C7.47 5.146875 8.3775 5.04375 9.3125 4.9375 C12.5625 5.25 12.5625 5.25 14.734375 7.33203125 C16.96699031 10.89562877 17.09852727 13.07083665 17.0625 17.25 C17.0728125 18.44625 17.083125 19.6425 17.09375 20.875 C16.47485985 24.80677275 15.39409847 26.49590878 12.5625 29.25 C9.8125 29.5625 9.8125 29.5625 7.5625 29.25 C7.27375 29.889375 6.985 30.52875 6.6875 31.1875 C5.5625 33.25 5.5625 33.25 3.5625 34.25 C0.1875 34.625 0.1875 34.625 -3.4375 34.25 C-5.5625 31.8125 -5.5625 31.8125 -7.4375 29.25 C-9.09764616 28.88557767 -10.76456064 28.55027117 -12.4375 28.25 C-14.88534973 25.84922431 -15.41704871 24.40458226 -15.87109375 20.97265625 C-15.87238281 19.76480469 -15.87367187 18.55695312 -15.875 17.3125 C-15.89433594 16.10722656 -15.91367188 14.90195312 -15.93359375 13.66015625 C-15.22653326 8.79981134 -12.80111294 6.61361294 -9.4375 3.25 C-8.10416667 2.91666667 -6.77083333 2.58333333 -5.4375 2.25 C-3.4375 0.25 -3.4375 0.25 0 0 Z " fill="#E10579" transform="translate(23.4375,6.75)"/>
<path d="M0 0 C1.1446875 0.3403125 1.1446875 0.3403125 2.3125 0.6875 C2.625 2.875 2.625 2.875 2.3125 5.6875 C0.0625 8.5625 0.0625 8.5625 -2.6875 10.6875 C-5 10.5 -5 10.5 -6.6875 9.6875 C-6.0875 3.3275 -6.0875 3.3275 -4.4375 0.6875 C-2.6875 -0.3125 -2.6875 -0.3125 0 0 Z " fill="#FADFF2" transform="translate(14.6875,12.3125)"/>
<path d="M0 0 C1.91015625 0.23046875 1.91015625 0.23046875 3.91015625 2.23046875 C3.66015625 4.29296875 3.66015625 4.29296875 2.91015625 6.23046875 C-0.1030857 7.73708972 -2.77270752 7.40817248 -6.08984375 7.23046875 C-6.74984375 6.57046875 -7.40984375 5.91046875 -8.08984375 5.23046875 C-7.24578654 -0.34030882 -5.3755226 0.10731533 0 0 Z " fill="#F9E5F3" transform="translate(26.08984375,33.76953125)"/>
<path d="M0 0 C2.30743937 0.30765858 3.77968224 0.84496158 5.6875 2.1875 C7.48848824 4.67457899 7.66549509 6.98945583 8 10 C6.35 10.33 4.7 10.66 3 11 C-0.918897 6.71370641 -0.918897 6.71370641 -1.3125 3.25 C-1 1 -1 1 0 0 Z " fill="#FAE2F3" transform="translate(9,25)"/>
<path d="M0 0 C3.625 0.1875 3.625 0.1875 6.625 2.1875 C5.75 6.0625 5.75 6.0625 4.625 7.1875 C-1.11111111 7.46064815 -1.11111111 7.46064815 -3.375 7.1875 C-4.035 6.5275 -4.695 5.8675 -5.375 5.1875 C-4.73668285 0.97460684 -4.40939279 0.24496627 0 0 Z " fill="#F8E5F4" transform="translate(23.375,6.8125)"/>
<path d="M0 0 C0.86625 0.37125 0.86625 0.37125 1.75 0.75 C1.15 7.11 1.15 7.11 -0.5 9.75 C-2.25 10.75 -2.25 10.75 -4.9375 10.4375 C-5.700625 10.210625 -6.46375 9.98375 -7.25 9.75 C-6.9314443 6.24588735 -6.55932553 4.1659895 -4.4375 1.3125 C-2.25 -0.25 -2.25 -0.25 0 0 Z " fill="#FAE4F4" transform="translate(38.25,25.25)"/>
<path d="M0 0 C3.01802393 0.32627286 4.59691281 0.61081236 6.8125 2.75 C8.19608294 5.37152557 8.24360427 7.07674878 8 10 C6.68 10.33 5.36 10.66 4 11 C0.38860104 7.21243523 0.38860104 7.21243523 -1 5 C-0.8125 2.125 -0.8125 2.125 0 0 Z " fill="#FBEAF7" transform="translate(32,12)"/>
<path d="M0 0 C0.5775 0.495 1.155 0.99 1.75 1.5 C4.10400629 3.36980013 4.10400629 3.36980013 8 3 C7.67 4.32 7.34 5.64 7 7 C4.50935112 7.68707555 2.62113708 8 0 8 C0 5.36 0 2.72 0 0 Z " fill="#D42181" transform="translate(32,19)"/>
<path d="M0 0 C-0.33 1.32 -0.66 2.64 -1 4 C-0.34 4 0.32 4 1 4 C0.67 4.99 0.34 5.98 0 7 C0 6.34 0 5.68 0 5 C-2.31 4.67 -4.62 4.34 -7 4 C-6.67 2.68 -6.34 1.36 -6 0 C-2.25 -1.125 -2.25 -1.125 0 0 Z " fill="#C9257D" transform="translate(15,22)"/>
<path d="M0 0 C0.33 0 0.66 0 1 0 C1 1.65 1 3.3 1 5 C-0.32 5.33 -1.64 5.66 -3 6 C-3.66 5.01 -4.32 4.02 -5 3 C-4.360625 2.87625 -3.72125 2.7525 -3.0625 2.625 C-2.0415625 2.315625 -2.0415625 2.315625 -1 2 C-0.67 1.34 -0.34 0.68 0 0 Z " fill="#F6D1EB" transform="translate(39,17)"/>
</svg>
