<svg xmlns="http://www.w3.org/2000/svg" width="178" height="228" viewBox="0 0 178 228" fill="none"
    class="absolute -top-5 right-0">
    <mask id="mask0_2567_13384" maskUnits="userSpaceOnUse" x="0" y="0" width="178" height="228"
        style="mask-type: alpha;">
        <rect x="0.943848" width="176.5" height="227.571" fill="#D9D9D9"></rect>
    </mask>
    <g mask="url(#mask0_2567_13384)">
        <path
            d="M222.935 159.253L208.103 151.632C205.625 150.361 201.997 147.7 200.041 145.716L158.384 103.561C156.428 101.58 153.104 99.2968 150.204 98.0901L120.702 85.8212C118.394 84.8615 114.697 83.5132 112.199 83.3998L89.7302 82.3794L94.0628 99.7057L117.945 109.683L125.444 114.186C126.436 114.781 126.926 116.157 126.537 117.243L126.14 118.348L110.753 115.501L72.6387 109.035L29.8594 108.553C24.6319 108.492 20.4653 110.266 20.3803 114.497L20.3398 116.599C20.2467 121.49 24.7939 125.361 32.135 126.288L81.393 132.508L121.172 138.436V141.489L80.3199 135.678L36.5809 134.018C32.3091 133.856 28.8025 135.65 28.7985 139.193V141.295C28.7944 145.89 32.2645 148.895 39.3141 150.231L81.393 158.2L126.395 168.161C127.42 168.388 128.319 169.428 128.392 170.477L128.537 172.566L96.0307 171.218L63.1758 171.89L54.8872 175.089C52.9841 175.822 52.0244 177.984 52.7533 179.887L53.6481 182.215C54.5997 184.693 57.2722 186.005 60.2038 186.722C62.6454 187.321 67.2735 188.018 76.7688 188.038L101.197 189.168L126.93 193.484L155.934 210.645C159.311 212.641 165.275 214.511 169.187 214.799L187.031 216.111L201.325 223.274"
            fill="#1B1B1C"></path>
        <path
            d="M222.935 159.253L208.103 151.632C205.625 150.361 201.997 147.7 200.041 145.716L158.384 103.561C156.428 101.58 153.103 99.2968 150.204 98.0901L120.702 85.8212C118.394 84.8615 114.697 83.5132 112.199 83.3998L89.7302 82.3794L94.0628 99.7057L117.945 109.683L125.444 114.186C126.436 114.781 126.926 116.157 126.537 117.243L126.14 118.348L110.753 115.501L72.6387 109.035L29.8594 108.553C24.6319 108.492 20.4653 110.266 20.3803 114.497L20.3398 116.599C20.2467 121.49 24.7939 125.361 32.135 126.288L81.393 132.508L121.172 138.436V141.489L80.3199 135.678L36.5809 134.018C32.3091 133.856 28.8025 135.65 28.7985 139.193V141.295C28.7944 145.89 32.2645 148.895 39.3141 150.231L81.393 158.2L126.395 168.161C127.42 168.388 128.319 169.428 128.392 170.477L128.537 172.566L96.0307 171.218L63.1758 171.89L54.8872 175.089C52.9841 175.822 52.0244 177.984 52.7533 179.887L53.6481 182.215C54.5997 184.693 57.2722 186.005 60.2038 186.722C62.6454 187.321 67.2735 188.018 76.7688 188.038L101.197 189.168L126.93 193.484L155.934 210.645C159.311 212.641 165.275 214.511 169.187 214.799L187.031 216.111L201.325 223.274"
            stroke="#1B1B1C" stroke-miterlimit="10"></path>
        <path d="M125.132 122.608C125.132 122.608 123.873 126.876 123.65 130.241" stroke="#2ECCFF"
            stroke-miterlimit="10"></path>
        <path d="M127.962 114.21C127.962 114.21 130.566 109.533 133.218 106.282L127.962 114.21Z"
            fill="url(#paint0_linear_2567_13384)"></path>
        <path d="M127.962 114.21C127.962 114.21 130.566 109.533 133.218 106.282" stroke="#2ECCFF"
            stroke-miterlimit="10"></path>
        <path d="M130.821 183.07C130.821 183.07 128.537 177.818 128.537 172.562" stroke="#2ECCFF"
            stroke-miterlimit="10"></path>
        <path d="M101.282 184.713V180.134" stroke="#2ECCFF" stroke-miterlimit="10"></path>
        <path
            d="M60.6046 188.548C63.1759 195.598 69.0593 199.983 75.1168 197.776L126.322 179.118C132.534 176.854 134.06 169.76 131.493 162.711L77.4329 14.3737C74.8617 7.32417 68.8811 2.97133 62.9207 5.14168L11.7191 23.8042C5.97339 25.8977 3.97719 33.1578 6.54841 40.2074L60.6087 188.544L60.6046 188.548Z"
            fill="url(#paint1_linear_2567_13384)"></path>
        <path
            d="M6.54012 40.2116C6.04207 38.843 5.71407 37.4623 5.55615 36.118L11.3991 34.0488L70.7719 193.525L65.0139 195.412C63.1554 193.699 61.6208 191.334 60.6085 188.548L6.54823 40.2116H6.54012Z"
            fill="#1B1B1C"></path>
        <path
            d="M5.68618 31.0201C5.68618 31.0201 6.6215 27.7929 7.8241 26.5741L13.2014 24.5576L12.6426 28.546L5.68213 31.0201H5.68618Z"
            fill="#1B1B1C"></path>
        <path
            d="M60.6046 188.548C63.1759 195.598 69.0593 199.983 75.1168 197.776L126.322 179.118C132.534 176.854 134.06 169.76 131.493 162.711L77.4329 14.3737C74.8617 7.32417 68.8811 2.97133 62.9207 5.14168L11.7191 23.8042C5.97339 25.8977 3.97719 33.1578 6.54841 40.2074L60.6087 188.544L60.6046 188.548Z"
            stroke="#1B1B1C" stroke-width="0.95" stroke-miterlimit="10" stroke-linecap="round"></path>
        <path
            d="M136.595 160.856L82.5345 12.5193C79.9633 5.46969 73.9827 1.11684 68.0223 3.28719L16.8207 21.9497C11.075 24.0432 9.07875 31.3033 11.65 38.3529L65.7103 186.69C68.2815 193.739 74.1649 198.124 80.2224 195.918L131.428 177.259C136.89 175.271 139.166 167.902 136.599 160.852L136.595 160.856Z"
            fill="url(#paint2_linear_2567_13384)" stroke="#1B1B1C" stroke-width="0.95"
            stroke-miterlimit="10" stroke-linecap="round"></path>
        <path
            d="M19.7041 73.0985C19.9997 73.9084 20.7811 74.37 21.4411 74.1311C22.1012 73.8922 22.4008 73.0337 22.1052 72.2239L18.2099 61.5301C17.9143 60.7202 17.1329 60.2586 16.4729 60.4975C15.8129 60.7364 15.5132 61.5949 15.8088 62.4047L19.7041 73.0985Z"
            fill="url(#paint3_linear_2567_13384)" stroke="#1B1B1C" stroke-width="0.95"
            stroke-miterlimit="10" stroke-linecap="round"></path>
        <path
            d="M25.2353 88.2797C25.5309 89.0895 26.3124 89.5511 26.9724 89.3122C27.6325 89.0733 27.9321 88.2149 27.6365 87.405L23.7412 76.7112C23.4456 75.9014 22.6641 75.4398 22.0041 75.6787C21.3441 75.9176 21.0445 76.776 21.3401 77.5858L25.2353 88.2797Z"
            fill="url(#paint4_linear_2567_13384)" stroke="#1B1B1C" stroke-width="0.95"
            stroke-miterlimit="10" stroke-linecap="round"></path>
        <path
            d="M79.2633 171.323C80.0003 173.352 81.6928 174.611 83.434 173.976L114.839 162.533C116.41 161.962 117.062 159.844 116.325 157.815L114.471 152.726C113.734 150.697 112.013 149.446 110.3 150.073L78.8948 161.52C77.2428 162.124 76.6678 164.209 77.4088 166.238L79.2633 171.327V171.323Z"
            fill="#0500FF" stroke="#1B1B1C" stroke-miterlimit="10"></path>
        <path
            d="M41.0226 19.2773C41.2412 19.8766 41.8567 20.2046 42.5532 19.9535L49.3639 17.4714C49.9956 17.2406 50.3195 16.5684 50.1008 15.9691L50.0806 15.9125C49.8619 15.3132 49.2384 14.9893 48.55 15.2362L41.7393 17.7184C41.0752 17.9613 40.7837 18.6213 41.0024 19.2206L41.0226 19.2773Z"
            fill="#1B1B1C"></path>
        <path
            d="M38.6292 22.6202C39.629 22.2484 40.0755 20.9682 39.6265 19.7609C39.1775 18.5536 38.003 17.8763 37.0032 18.2481C36.0034 18.62 35.5569 19.9001 36.0059 21.1074C36.4548 22.3147 37.6293 22.992 38.6292 22.6202Z"
            fill="#1B1B1C"></path>
        <path
            d="M170.568 140.639L157.465 136.581C155.631 136.014 151.995 135.678 150.083 135.848L123.982 138.185C120.893 138.46 117.625 139.319 114.791 140.578L107.223 143.947L97.0516 147.101C94.8732 147.777 93.1604 152.114 93.8042 154.305L94.4277 156.43C95.0229 158.463 97.7885 161.269 102.858 161.5C108.608 161.763 115.852 162.172 127.076 159.463L146.832 163.5C146.832 163.5 155.789 185.362 183.57 195.375"
            fill="#1B1B1C"></path>
        <path
            d="M170.568 140.639L157.465 136.581C155.631 136.014 151.995 135.678 150.083 135.848L123.982 138.185C120.893 138.46 117.625 139.319 114.791 140.578L107.223 143.947L97.0516 147.101C94.8732 147.777 93.1604 152.114 93.8042 154.305L94.4277 156.43C95.0229 158.463 97.7885 161.269 102.858 161.5C108.608 161.763 115.852 162.172 127.076 159.463L146.832 163.5C146.832 163.5 155.789 185.362 183.57 195.375"
            stroke="#1B1B1C" stroke-miterlimit="10"></path>
        <path
            d="M170.568 140.639L157.465 136.581C155.63 136.014 151.994 135.678 150.083 135.848L128.112 137.812"
            stroke="#2ECCFF" stroke-miterlimit="10"></path>
        <path d="M127.08 159.463C127.08 159.463 128.275 157.88 127.376 155.41" stroke="#2ECCFF"
            stroke-miterlimit="10"></path>
        <path
            d="M134.203 160.921L143.439 162.808C145.484 163.225 147.241 164.517 148.253 166.343C151.715 172.591 161.931 187.577 183.574 195.379"
            stroke="#2ECCFF" stroke-miterlimit="10"></path>
        <path
            d="M164.482 125.778L160.486 131.561C159.117 133.545 156.028 135.334 153.627 135.541L150.083 135.845"
            stroke="#2ECCFF" stroke-miterlimit="10"></path>
        <path
            d="M107.62 145.105L109.863 152.203C110.158 153.143 109.733 154.357 108.919 154.908L102.003 159.569C102.003 159.569 97.3915 159.168 95.8042 154.981C94.6745 152.001 95.6787 150.401 96.5006 149.081"
            stroke="#2ECCFF" stroke-miterlimit="10"></path>
        <path d="M126.93 158.086L126.303 155.572" stroke="#1B1B1C" stroke-miterlimit="10"></path>
        <path d="M149.33 164.197C154.404 165.501 159.255 163.5 159.255 163.5" stroke="#2ECCFF"
            stroke-miterlimit="10"></path>
        <path fill-rule="evenodd" clip-rule="evenodd"
            d="M44.8383 73.5453L60.9069 62.9319L75.4423 102.535C60.9939 102.034 51.5667 91.8777 49.4673 86.1577L44.8383 73.5453ZM80.5224 61.9616L60.9081 62.9315L75.444 102.536C86.0166 92.4777 87.3062 80.4448 85.2068 74.7249L80.5224 61.9616ZM74.2628 99.3179C83.1004 90.91 84.1787 80.8516 82.4237 76.0699L78.5086 65.4026L62.1125 66.2131L74.2628 99.3179Z"
            fill="#0500FF"></path>
    </g>
    <defs>
        <linearGradient id="paint0_linear_2567_13384" x1="130.59" y1="106.282" x2="130.59"
            y2="114.21" gradientUnits="userSpaceOnUse">
            <stop offset="0.0598417" stop-color="#FFF465"></stop>
            <stop offset="0.777316" stop-color="#48FF91"></stop>
        </linearGradient>
        <linearGradient id="paint1_linear_2567_13384" x1="69.0634" y1="4.58105" x2="69.0634"
            y2="198.35" gradientUnits="userSpaceOnUse">
            <stop offset="0.0598417" stop-color="#FFF465"></stop>
            <stop offset="0.777316" stop-color="#48FF91"></stop>
        </linearGradient>
        <linearGradient id="paint2_linear_2567_13384" x1="74.099" y1="2.72656" x2="74.099"
            y2="196.492" gradientUnits="userSpaceOnUse">
            <stop offset="0.0598417" stop-color="#FFF465"></stop>
            <stop offset="0.777316" stop-color="#48FF91"></stop>
        </linearGradient>
        <linearGradient id="paint3_linear_2567_13384" x1="18.957" y1="60.4346" x2="18.957"
            y2="74.194" gradientUnits="userSpaceOnUse">
            <stop offset="0.0598417" stop-color="#FFF9A8"></stop>
            <stop offset="0.777316" stop-color="#FFAEFE"></stop>
        </linearGradient>
        <linearGradient id="paint4_linear_2567_13384" x1="24.4883" y1="75.6157" x2="24.4883"
            y2="89.3752" gradientUnits="userSpaceOnUse">
            <stop offset="0.0598417" stop-color="#FFF9A8"></stop>
            <stop offset="0.777316" stop-color="#FFAEFE"></stop>
        </linearGradient>
    </defs>
</svg>